<svg width="20" height="20" viewBox="0 0 20 20" fill="none" xmlns="http://www.w3.org/2000/svg">
<path d="M4.16666 9.16663V9.99996C4.16666 11.3807 5.28594 12.5 6.66666 12.5V12.5C8.04737 12.5 9.16666 11.3807 9.16666 9.99996V9.16663" stroke="#858D98" stroke-width="1.25" stroke-linecap="square"/>
<path d="M16.4583 5.83337V5.20837H15.2083V5.83337H16.4583ZM13.3333 8.54171C12.9882 8.54171 12.7083 8.82153 12.7083 9.16671C12.7083 9.51189 12.9882 9.79171 13.3333 9.79171V8.54171ZM15.2083 5.83337V6.66671H16.4583V5.83337H15.2083ZM15.2083 6.66671C15.2083 7.70224 14.3689 8.54171 13.3333 8.54171V9.79171C15.0592 9.79171 16.4583 8.3926 16.4583 6.66671H15.2083Z" fill="#858D98"/>
<path d="M1.66666 7.50004L6.66666 5.83337L11.6667 7.50004L6.66666 9.16671L1.66666 7.50004Z" stroke="#858D98" stroke-width="1.25" stroke-linecap="round" stroke-linejoin="round"/>
<path d="M8.33334 4.16667L13.3333 2.5L18.3333 4.16667L13.3333 5.83333L8.33334 4.16667Z" stroke="#858D98" stroke-width="1.25" stroke-linecap="round" stroke-linejoin="round"/>
<path d="M1.66666 18.3333C1.66666 16.6025 2.79 15.1039 4.42679 14.377C4.75183 14.2327 5.12467 14.3584 5.33654 14.644L5.99734 15.5349C6.3305 15.9841 7.00281 15.9841 7.33598 15.5349L7.99677 14.644C8.20864 14.3584 8.58148 14.2327 8.90652 14.377C10.5433 15.1039 11.6667 16.6025 11.6667 18.3333" stroke="#858D98" stroke-width="1.25" stroke-linecap="round" stroke-linejoin="round"/>
<path d="M18.3333 4.16663V8.33329" stroke="#858D98" stroke-width="1.25" stroke-linecap="round"/>
<path d="M11.6667 7.5V11.6667" stroke="#858D98" stroke-width="1.25" stroke-linecap="round"/>
<path fill-rule="evenodd" clip-rule="evenodd" d="M13.3333 13.1635C13.7732 13.1635 14.2131 12.967 14.5046 12.574L15.1654 11.6831C15.1938 11.6449 15.2293 11.6227 15.2588 11.6136C15.2857 11.6054 15.3044 11.6082 15.3195 11.6149C16.7701 12.2591 17.7083 13.5569 17.7083 15C17.7083 15.3452 17.9882 15.625 18.3333 15.625C18.6785 15.625 18.9583 15.3452 18.9583 15C18.9583 12.9815 17.6498 11.2821 15.8269 10.4725C15.1966 10.1927 14.5217 10.4527 14.1615 10.9384L13.5007 11.8293C13.459 11.8855 13.3962 11.9135 13.3333 11.9135V13.1635Z" fill="#858D98"/>
</svg>
