<svg width="20" height="20" viewBox="0 0 20 20" fill="none" xmlns="http://www.w3.org/2000/svg">
<path fill-rule="evenodd" clip-rule="evenodd" d="M1.04166 11.6667C1.04166 6.71916 5.05244 2.70837 9.99999 2.70837C14.9475 2.70837 18.9583 6.71916 18.9583 11.6667V13.3334C18.9583 15.5195 17.1861 17.2917 15 17.2917H4.99999C2.81386 17.2917 1.04166 15.5195 1.04166 13.3334V11.6667ZM9.99999 3.95837C5.74279 3.95837 2.29166 7.40951 2.29166 11.6667V13.3334C2.29166 14.8291 3.50422 16.0417 4.99999 16.0417H15C16.4958 16.0417 17.7083 14.8291 17.7083 13.3334V11.6667C17.7083 7.40951 14.2572 3.95837 9.99999 3.95837Z" fill="#858D98"/>
<path fill-rule="evenodd" clip-rule="evenodd" d="M10 14.7916C8.96447 14.7916 8.125 15.6311 8.125 16.6666H6.875C6.875 14.9407 8.27411 13.5416 10 13.5416C11.7259 13.5416 13.125 14.9407 13.125 16.6666H11.875C11.875 15.6311 11.0355 14.7916 10 14.7916Z" fill="#858D98"/>
<path fill-rule="evenodd" clip-rule="evenodd" d="M10 6.45837C7.96662 6.45837 6.78519 7.45594 5.99766 8.67293C5.81013 8.96272 5.42319 9.04562 5.13339 8.85809C4.8436 8.67056 4.7607 8.28362 4.94823 7.99382C5.90402 6.51681 7.43978 5.20837 10 5.20837C12.5602 5.20837 14.096 6.51681 15.0518 7.99382C15.2393 8.28362 15.1564 8.67056 14.8666 8.85809C14.5768 9.04562 14.1899 8.96272 14.0023 8.67293C13.2148 7.45594 12.0334 6.45837 10 6.45837Z" fill="#858D98"/>
<path fill-rule="evenodd" clip-rule="evenodd" d="M12.8216 9.46404C13.1176 9.64163 13.2135 10.0255 13.0359 10.3215L10.5359 14.4882C10.3583 14.7842 9.97443 14.8802 9.67844 14.7026C9.38246 14.525 9.28648 14.1411 9.46407 13.8451L11.9641 9.67841C12.1417 9.38242 12.5256 9.28645 12.8216 9.46404Z" fill="#858D98"/>
</svg>
