<svg width="20" height="20" viewBox="0 0 20 20" fill="none" xmlns="http://www.w3.org/2000/svg">
<path fill-rule="evenodd" clip-rule="evenodd" d="M10 5.625C8.96447 5.625 8.125 6.46447 8.125 7.5C8.125 8.53553 8.96447 9.375 10 9.375C11.0355 9.375 11.875 8.53553 11.875 7.5C11.875 6.46447 11.0355 5.625 10 5.625ZM6.875 7.5C6.875 5.77411 8.27411 4.375 10 4.375C11.7259 4.375 13.125 5.77411 13.125 7.5C13.125 9.22589 11.7259 10.625 10 10.625C8.27411 10.625 6.875 9.22589 6.875 7.5Z" fill="#858D98"/>
<path fill-rule="evenodd" clip-rule="evenodd" d="M4.375 15.2778C4.375 13.3985 5.89848 11.875 7.77778 11.875H12.2222C14.1015 11.875 15.625 13.3985 15.625 15.2778C15.625 16.39 14.7234 17.2917 13.6111 17.2917H6.38889C5.27665 17.2917 4.375 16.39 4.375 15.2778ZM7.77778 13.125C6.58883 13.125 5.625 14.0888 5.625 15.2778C5.625 15.6997 5.967 16.0417 6.38889 16.0417H13.6111C14.033 16.0417 14.375 15.6997 14.375 15.2778C14.375 14.0888 13.4112 13.125 12.2222 13.125H7.77778Z" fill="#858D98"/>
<path fill-rule="evenodd" clip-rule="evenodd" d="M14.0374 8.53377C13.9304 8.95289 13.7599 9.3466 13.5367 9.70403C13.7368 9.76113 13.9482 9.79171 14.1667 9.79171C15.4323 9.79171 16.4583 8.76569 16.4583 7.50004C16.4583 6.23439 15.4323 5.20837 14.1667 5.20837C13.9482 5.20837 13.7368 5.23895 13.5367 5.29605C13.7599 5.65348 13.9304 6.04719 14.0374 6.46631C14.0798 6.46107 14.1229 6.45837 14.1667 6.45837C14.742 6.45837 15.2083 6.92474 15.2083 7.50004C15.2083 8.07534 14.742 8.54171 14.1667 8.54171C14.1229 8.54171 14.0798 8.53901 14.0374 8.53377Z" fill="#858D98"/>
<path fill-rule="evenodd" clip-rule="evenodd" d="M16.6666 15.625H17.5C18.3054 15.625 18.9583 14.9721 18.9583 14.1667C18.9583 12.901 17.9323 11.875 16.6666 11.875H14.9927C15.4167 12.2237 15.777 12.6471 16.0535 13.125H16.6666C17.2419 13.125 17.7083 13.5914 17.7083 14.1667C17.7083 14.2817 17.615 14.375 17.5 14.375H16.5478C16.6255 14.7096 16.6666 15.0584 16.6666 15.4167V15.625Z" fill="#858D98"/>
<path fill-rule="evenodd" clip-rule="evenodd" d="M6.46329 5.29605C6.26314 5.23895 6.0518 5.20837 5.83332 5.20837C4.56767 5.20837 3.54166 6.23439 3.54166 7.50004C3.54166 8.76569 4.56767 9.79171 5.83332 9.79171C6.0518 9.79171 6.26314 9.76113 6.46329 9.70403C6.24008 9.3466 6.06955 8.95289 5.96256 8.53377C5.92021 8.53901 5.87708 8.54171 5.83332 8.54171C5.25803 8.54171 4.79166 8.07534 4.79166 7.50004C4.79166 6.92474 5.25803 6.45837 5.83332 6.45837C5.87708 6.45837 5.92021 6.46107 5.96256 6.46631C6.06955 6.04719 6.24008 5.65348 6.46329 5.29605Z" fill="#858D98"/>
<path fill-rule="evenodd" clip-rule="evenodd" d="M5.00723 11.875H3.33332C2.06767 11.875 1.04166 12.901 1.04166 14.1667C1.04166 14.9721 1.69457 15.625 2.49999 15.625H3.33332V15.4167C3.33332 15.0584 3.37444 14.7096 3.45221 14.375H2.49999C2.38493 14.375 2.29166 14.2817 2.29166 14.1667C2.29166 13.5914 2.75803 13.125 3.33332 13.125H3.94649C4.22295 12.6471 4.58323 12.2237 5.00723 11.875Z" fill="#858D98"/>
</svg>
