<svg width="24" height="24" viewBox="0 0 24 24" fill="none" xmlns="http://www.w3.org/2000/svg">
<g id="menu">
<path id="Vector 565 (Stroke)" fill-rule="evenodd" clip-rule="evenodd" d="M17 12C17 12.5523 16.5523 13 16 13L8 13C7.44771 13 7 12.5523 7 12C7 11.4477 7.44771 11 8 11L16 11C16.5523 11 17 11.4477 17 12Z" fill="#5FCFAC"/>
<path id="Vector 567 (Stroke)" fill-rule="evenodd" clip-rule="evenodd" d="M15 16C15 16.5523 14.5523 17 14 17H10C9.44772 17 9 16.5523 9 16C9 15.4477 9.44772 15 10 15H14C14.5523 15 15 15.4477 15 16Z" fill="#5FCFAC"/>
<path id="Vector 566 (Stroke)" fill-rule="evenodd" clip-rule="evenodd" d="M19 8C19 8.55228 18.5523 9 18 9L6 9C5.44771 9 5 8.55228 5 8C5 7.44772 5.44771 7 6 7L18 7C18.5523 7 19 7.44772 19 8Z" fill="#5FCFAC"/>
</g>
</svg>
