<svg width="20" height="20" viewBox="0 0 20 20" fill="none" xmlns="http://www.w3.org/2000/svg">
<path d="M2.5 10C6.25 10 10 6.25 10 2.5C10 6.25 13.75 10 17.5 10C13.75 10 10 13.75 10 17.5C10 13.75 6.25 10 2.5 10Z" fill="url(#paint0_linear_42_393)" stroke="url(#paint1_linear_42_393)" stroke-width="1.25" stroke-linejoin="round"/>
<path d="M1.66666 16.25C2.36111 16.25 3.75 14.8611 3.75 14.1667C3.75 14.8611 5.13889 16.25 5.83333 16.25C5.13889 16.25 3.75 17.6389 3.75 18.3333C3.75 17.6389 2.36111 16.25 1.66666 16.25Z" fill="url(#paint2_linear_42_393)" stroke="url(#paint3_linear_42_393)" stroke-width="1.25" stroke-linejoin="round"/>
<path d="M13.3333 4.16666C14.1667 4.16666 15.8333 2.49999 15.8333 1.66666C15.8333 2.49999 17.5 4.16666 18.3333 4.16666C17.5 4.16666 15.8333 5.83332 15.8333 6.66666C15.8333 5.83332 14.1667 4.16666 13.3333 4.16666Z" fill="url(#paint4_linear_42_393)" stroke="url(#paint5_linear_42_393)" stroke-width="1.25" stroke-linejoin="round"/>
<defs>
<linearGradient id="paint0_linear_42_393" x1="10" y1="2.5" x2="10" y2="17.5" gradientUnits="userSpaceOnUse">
<stop stop-color="#426BFB"/>
<stop offset="1" stop-color="#17A3F1"/>
</linearGradient>
<linearGradient id="paint1_linear_42_393" x1="10" y1="2.5" x2="10" y2="17.5" gradientUnits="userSpaceOnUse">
<stop stop-color="#426BFB"/>
<stop offset="1" stop-color="#17A3F1"/>
</linearGradient>
<linearGradient id="paint2_linear_42_393" x1="3.75" y1="14.1667" x2="3.75" y2="18.3333" gradientUnits="userSpaceOnUse">
<stop stop-color="#426BFB"/>
<stop offset="1" stop-color="#17A3F1"/>
</linearGradient>
<linearGradient id="paint3_linear_42_393" x1="3.75" y1="14.1667" x2="3.75" y2="18.3333" gradientUnits="userSpaceOnUse">
<stop stop-color="#426BFB"/>
<stop offset="1" stop-color="#17A3F1"/>
</linearGradient>
<linearGradient id="paint4_linear_42_393" x1="15.8333" y1="1.66666" x2="15.8333" y2="6.66666" gradientUnits="userSpaceOnUse">
<stop stop-color="#426BFB"/>
<stop offset="1" stop-color="#17A3F1"/>
</linearGradient>
<linearGradient id="paint5_linear_42_393" x1="15.8333" y1="1.66666" x2="15.8333" y2="6.66666" gradientUnits="userSpaceOnUse">
<stop stop-color="#426BFB"/>
<stop offset="1" stop-color="#17A3F1"/>
</linearGradient>
</defs>
</svg>
