<svg width="20" height="20" viewBox="0 0 20 20" fill="none" xmlns="http://www.w3.org/2000/svg">
<path d="M2.5 14.1667C2.5 13.2462 3.24619 12.5 4.16667 12.5H4.30964C4.75167 12.5 5.17559 12.6756 5.48816 12.9882V12.9882C6.13903 13.639 7.1943 13.639 7.84518 12.9882V12.9882C8.15774 12.6756 8.58166 12.5 9.02369 12.5H9.16667C10.0871 12.5 10.8333 13.2462 10.8333 14.1667V15C10.8333 15.9205 10.0871 16.6667 9.16667 16.6667H4.16667C3.24619 16.6667 2.5 15.9205 2.5 15V14.1667Z" stroke="#858D98" stroke-width="1.25"/>
<circle cx="6.66667" cy="9.16667" r="1.66667" stroke="#858D98" stroke-width="1.25"/>
<path d="M6.66666 5.00016V4.16683C6.66666 3.70659 7.03975 3.3335 7.49999 3.3335H17.5C17.9602 3.3335 18.3333 3.70659 18.3333 4.16683V12.5002C18.3333 12.9604 17.9602 13.3335 17.5 13.3335H13.1164" stroke="#858D98" stroke-width="1.25" stroke-linecap="round"/>
<path d="M10 6.6665L15 6.6665" stroke="#858D98" stroke-width="1.25" stroke-linecap="round"/>
<path d="M11.6667 10H15" stroke="#858D98" stroke-width="1.25" stroke-linecap="round"/>
</svg>
